<svg width="24" height="24" viewBox="0 0 24 24" fill="none" xmlns="http://www.w3.org/2000/svg">
<path d="M3 10H21M7 15H7.01M11 15H13M3 8.00003C3 7.20438 3.31607 6.44132 3.87868 5.87871C4.44129 5.3161 5.20435 5.00003 6 5.00003H18C18.7956 5.00003 19.5587 5.3161 20.1213 5.87871C20.6839 6.44132 21 7.20438 21 8.00003V16C21 16.7957 20.6839 17.5587 20.1213 18.1214C19.5587 18.684 18.7956 19 18 19H6C5.20435 19 4.44129 18.684 3.87868 18.1214C3.31607 17.5587 3 16.7957 3 16V8.00003Z" stroke="#596066" stroke-width="1.5" stroke-linecap="round" stroke-linejoin="round"/>
</svg>
