<svg width="24" height="24" viewBox="0 0 24 24" fill="none" xmlns="http://www.w3.org/2000/svg">
<path d="M19.5001 12.572L12.0001 20L4.50006 12.572C4.00536 12.0906 3.6157 11.512 3.3556 10.8727C3.09551 10.2333 2.97062 9.54698 2.98879 8.85696C3.00697 8.16694 3.16782 7.48816 3.46121 6.86336C3.75461 6.23857 4.17419 5.68128 4.69354 5.22661C5.21289 4.77193 5.82076 4.42972 6.47887 4.22151C7.13697 4.0133 7.83106 3.94361 8.51743 4.01683C9.20379 4.09005 9.86756 4.30459 10.4669 4.64693C11.0663 4.98928 11.5883 5.45203 12.0001 6.00603C12.4136 5.45605 12.9362 4.99735 13.5352 4.65863C14.1341 4.31992 14.7966 4.10848 15.481 4.03755C16.1654 3.96662 16.8571 4.03773 17.5128 4.24642C18.1685 4.45511 18.7741 4.7969 19.2916 5.25039C19.8091 5.70388 20.2275 6.25931 20.5205 6.88192C20.8135 7.50453 20.9748 8.18091 20.9944 8.86874C21.0139 9.55656 20.8913 10.241 20.6342 10.8793C20.3771 11.5175 19.991 12.0959 19.5001 12.578" stroke="#596066" stroke-width="1.5" stroke-linecap="round" stroke-linejoin="round"/>
</svg>
