<svg width="24" height="24" viewBox="0 0 24 24" fill="none" xmlns="http://www.w3.org/2000/svg">
<path d="M12 9.00018H12.01M11 12.0002H12V16.0002H13M3 12.0002C3 13.1821 3.23279 14.3524 3.68508 15.4443C4.13738 16.5363 4.80031 17.5284 5.63604 18.3641C6.47177 19.1999 7.46392 19.8628 8.55585 20.3151C9.64778 20.7674 10.8181 21.0002 12 21.0002C13.1819 21.0002 14.3522 20.7674 15.4442 20.3151C16.5361 19.8628 17.5282 19.1999 18.364 18.3641C19.1997 17.5284 19.8626 16.5363 20.3149 15.4443C20.7672 14.3524 21 13.1821 21 12.0002C21 9.61323 20.0518 7.32405 18.364 5.63622C16.6761 3.94839 14.3869 3.00018 12 3.00018C9.61305 3.00018 7.32387 3.94839 5.63604 5.63622C3.94821 7.32405 3 9.61323 3 12.0002Z" stroke="#596066" stroke-width="1.5" stroke-linecap="round" stroke-linejoin="round"/>
</svg>
