<svg width="24" height="24" viewBox="0 0 24 24" fill="none" xmlns="http://www.w3.org/2000/svg">
<path d="M8.2886 20.0222C7.88237 19.2065 8.21438 18.2158 9.03016 17.8096L12.0723 16.2947L13.5561 19.2426L10.5012 20.7638C9.68547 21.17 8.69483 20.838 8.2886 20.0222Z" fill="#EBC032"/>
<path d="M14.2181 18.913L12.7344 15.9651L15.7955 14.4408C16.6113 14.0345 17.6019 14.3665 18.0082 15.1823C18.4144 15.9981 18.0824 16.9887 17.2666 17.395L14.2181 18.913Z" fill="#EBC032"/>
<path d="M10.2529 12.4937C10.7246 13.8767 11.0691 14.5514 11.7707 15.6537C8.74321 17.1654 5.47776 16.0607 3.90137 13.1144C6.34523 11.4002 8.24989 11.519 10.2529 12.4937Z" fill="#EBC032"/>
<path d="M12.4101 15.3319C9.56402 11.715 9.46001 5.38462 15.199 2.2912C19.9255 8.71027 15.1359 14.177 12.4101 15.3319Z" fill="#EBC032"/>
</svg>
