<svg width="24" height="24" viewBox="0 0 24 24" fill="none" xmlns="http://www.w3.org/2000/svg">
<path d="M9 7.00012H15M9 11.0001H15M9 15.0001H13M5 5.00012C5 4.46969 5.21071 3.96098 5.58579 3.58591C5.96086 3.21084 6.46957 3.00012 7 3.00012H17C17.5304 3.00012 18.0391 3.21084 18.4142 3.58591C18.7893 3.96098 19 4.46969 19 5.00012V19.0001C19 19.5306 18.7893 20.0393 18.4142 20.4143C18.0391 20.7894 17.5304 21.0001 17 21.0001H7C6.46957 21.0001 5.96086 20.7894 5.58579 20.4143C5.21071 20.0393 5 19.5306 5 19.0001V5.00012Z" stroke="#596066" stroke-width="1.5" stroke-linecap="round" stroke-linejoin="round"/>
</svg>
