<svg width="24" height="24" viewBox="0 0 24 24" fill="none" xmlns="http://www.w3.org/2000/svg">
<path d="M5.45457 2.00006C5.06904 2.00006 4.69823 2.14039 4.4255 2.39073C4.15273 2.64073 4 2.97973 4 3.33338V21.0887C4 21.5921 4.44365 22.0001 4.99273 22.0001H4.99639C5.29094 22.0001 5.57091 21.8928 5.77818 21.7021C6.7418 20.8194 9.58545 18.2127 10.76 17.1381C11.0873 16.8364 11.5345 16.6667 12 16.6667C12.4655 16.6667 12.9128 16.8364 13.24 17.1381C14.4182 18.2161 17.2764 20.8354 18.2291 21.7101C18.4327 21.8957 18.7054 22.0001 18.9927 22.0001C19.5491 22.0001 20 21.587 20 21.0774V3.33338C20 2.97973 19.8473 2.64073 19.5745 2.39073C19.3018 2.14039 18.931 2.00006 18.5454 2.00006H5.45457Z" stroke="#596066" stroke-width="1.5" stroke-linecap="round" stroke-linejoin="round"/>
</svg>
