<svg width="24" height="24" viewBox="0 0 24 24" fill="none" xmlns="http://www.w3.org/2000/svg">
<path d="M10.325 4.31715C10.751 2.56115 13.249 2.56115 13.675 4.31715C13.7389 4.58095 13.8642 4.82593 14.0407 5.03215C14.2172 5.23837 14.4399 5.40001 14.6907 5.5039C14.9414 5.60779 15.2132 5.651 15.4838 5.63002C15.7544 5.60904 16.0162 5.52446 16.248 5.38315C17.791 4.44315 19.558 6.20915 18.618 7.75315C18.4769 7.98481 18.3924 8.24649 18.3715 8.51693C18.3506 8.78736 18.3938 9.05892 18.4975 9.30953C18.6013 9.56014 18.7627 9.78273 18.9687 9.9592C19.1747 10.1357 19.4194 10.2611 19.683 10.3252C21.439 10.7512 21.439 13.2492 19.683 13.6752C19.4192 13.7391 19.1742 13.8644 18.968 14.0409C18.7618 14.2174 18.6001 14.44 18.4963 14.6908C18.3924 14.9416 18.3491 15.2133 18.3701 15.4839C18.3911 15.7546 18.4757 16.0164 18.617 16.2482C19.557 17.7912 17.791 19.5582 16.247 18.6182C16.0153 18.4771 15.7537 18.3926 15.4832 18.3717C15.2128 18.3507 14.9412 18.3939 14.6906 18.4977C14.44 18.6015 14.2174 18.7629 14.0409 18.9689C13.8645 19.1749 13.7391 19.4196 13.675 19.6832C13.249 21.4392 10.751 21.4392 10.325 19.6832C10.2611 19.4194 10.1358 19.1744 9.95929 18.9682C9.7828 18.7619 9.56011 18.6003 9.30935 18.4964C9.05859 18.3925 8.78683 18.3493 8.51621 18.3703C8.24559 18.3913 7.98375 18.4759 7.752 18.6172C6.209 19.5572 4.442 17.7912 5.382 16.2472C5.5231 16.0155 5.60755 15.7538 5.62848 15.4834C5.64942 15.2129 5.60624 14.9414 5.50247 14.6908C5.3987 14.4402 5.23726 14.2176 5.03127 14.0411C4.82529 13.8646 4.58056 13.7392 4.317 13.6752C2.561 13.2492 2.561 10.7512 4.317 10.3252C4.5808 10.2612 4.82578 10.1359 5.032 9.95944C5.23822 9.78295 5.39985 9.56026 5.50375 9.3095C5.60764 9.05874 5.65085 8.78699 5.62987 8.51637C5.60889 8.24575 5.5243 7.9839 5.383 7.75215C4.443 6.20915 6.209 4.44215 7.753 5.38215C8.753 5.99015 10.049 5.45215 10.325 4.31715Z" stroke="#596066" stroke-width="1.5" stroke-linecap="round" stroke-linejoin="round"/>
<path d="M9 12.0002C9 12.7958 9.31607 13.5589 9.87868 14.1215C10.4413 14.6841 11.2044 15.0002 12 15.0002C12.7956 15.0002 13.5587 14.6841 14.1213 14.1215C14.6839 13.5589 15 12.7958 15 12.0002C15 11.2045 14.6839 10.4414 14.1213 9.87883C13.5587 9.31622 12.7956 9.00015 12 9.00015C11.2044 9.00015 10.4413 9.31622 9.87868 9.87883C9.31607 10.4414 9 11.2045 9 12.0002Z" stroke="#596066" stroke-width="1.5" stroke-linecap="round" stroke-linejoin="round"/>
</svg>
